<svg width="31" height="31" viewBox="0 0 31 31" fill="none" xmlns="http://www.w3.org/2000/svg">
<path d="M26.5521 8.45268C26.5872 8.43219 26.6163 8.40287 26.6366 8.36762C26.6568 8.33237 26.6674 8.29243 26.6674 8.25178C26.6674 8.21114 26.6568 8.1712 26.6366 8.13595C26.6163 8.1007 26.5872 8.07137 26.5521 8.05089L17.6709 2.89103C17.1026 2.56165 16.4574 2.38818 15.8006 2.38818C15.1438 2.38818 14.4986 2.56165 13.9304 2.89103L5.05093 8.05089C5.01582 8.07137 4.98669 8.1007 4.96644 8.13595C4.9462 8.1712 4.93555 8.21114 4.93555 8.25178C4.93555 8.29243 4.9462 8.33237 4.96644 8.36762C4.98669 8.40287 5.01582 8.43219 5.05093 8.45268L15.6846 14.708C15.7204 14.7291 15.7611 14.7402 15.8027 14.7402C15.8442 14.7402 15.8849 14.7291 15.9207 14.708L26.5521 8.45268Z" fill="white"/>
<path d="M4.05542 10.0341C4.01995 10.0136 3.97971 10.0029 3.93875 10.0029C3.8978 10.003 3.85759 10.0139 3.82218 10.0345C3.78678 10.0551 3.75745 10.0846 3.73714 10.1202C3.71684 10.1558 3.70628 10.1961 3.70655 10.237V20.348C3.70743 20.8352 3.83585 21.3138 4.07904 21.736C4.32223 22.1582 4.67172 22.5094 5.09274 22.7546L14.5217 28.4082C14.557 28.4286 14.5971 28.4393 14.6379 28.4393C14.6787 28.4393 14.7188 28.4286 14.7541 28.4082C14.7895 28.3878 14.8189 28.3585 14.8393 28.3232C14.8597 28.2879 14.8705 28.2478 14.8705 28.207V16.4761C14.8705 16.4353 14.8597 16.3952 14.8393 16.3599C14.8189 16.3246 14.7896 16.2953 14.7542 16.2749L4.05542 10.0341Z" fill="white"/>
<path d="M16.731 16.5169V28.2042C16.731 28.245 16.7418 28.2851 16.7622 28.3204C16.7826 28.3557 16.812 28.385 16.8474 28.4054C16.8827 28.4258 16.9228 28.4365 16.9636 28.4365C17.0044 28.4365 17.0445 28.4258 17.0798 28.4054L26.5082 22.7519C26.9289 22.5069 27.2782 22.1562 27.5215 21.7345C27.7648 21.3129 27.8935 20.8349 27.8949 20.3481V10.2371C27.8948 10.1964 27.884 10.1564 27.8635 10.1211C27.843 10.0859 27.8136 10.0566 27.7783 10.0363C27.743 10.016 27.7029 10.0053 27.6622 10.0054C27.6214 10.0054 27.5814 10.0162 27.5461 10.0365L16.8472 16.3163C16.812 16.3366 16.7827 16.3659 16.7623 16.4011C16.7419 16.4363 16.7311 16.4762 16.731 16.5169V16.5169Z" fill="white"/>
</svg>
