<svg width="20" height="20" viewBox="0 0 20 20" fill="none" xmlns="http://www.w3.org/2000/svg">
<path d="M19.4172 16.5875C20.1984 17.3687 20.1984 18.6375 19.4172 19.4187C18.6359 20.2 17.3672 20.2 16.5859 19.4187L10.0047 12.8312L3.41719 19.4125C2.63594 20.1937 1.36719 20.1937 0.585938 19.4125C-0.195312 18.6312 -0.195312 17.3625 0.585938 16.5812L7.17344 9.99995L0.592188 3.41245C-0.189062 2.6312 -0.189062 1.36245 0.592188 0.581202C1.37344 -0.200048 2.64219 -0.200048 3.42344 0.581202L10.0047 7.1687L16.5922 0.587454C17.3734 -0.193796 18.6422 -0.193796 19.4234 0.587454C20.2047 1.3687 20.2047 2.63745 19.4234 3.4187L12.8359 9.99995L19.4172 16.5875Z" fill="white"/>
</svg>
