<svg width="29" height="23" viewBox="0 0 29 23" fill="none" xmlns="http://www.w3.org/2000/svg">
<path d="M18.1323 0.126465C18.4613 0.126465 18.7768 0.257154 19.0094 0.489782C19.2421 0.722411 19.3728 1.03792 19.3728 1.36691V3.8478H24.3345C24.6635 3.8478 24.979 3.97848 25.2117 4.21111C25.4443 4.44374 25.575 4.75925 25.575 5.08824V19.9736H28.0559V22.4544H0.766113V19.9736H3.247V5.08824C3.247 4.75925 3.37769 4.44374 3.61032 4.21111C3.84295 3.97848 4.15846 3.8478 4.48744 3.8478H9.44922V1.36691C9.44922 1.03792 9.57991 0.722411 9.81253 0.489782C10.0452 0.257154 10.3607 0.126465 10.6897 0.126465H18.1323ZM11.9301 6.32868H9.44922V19.9736H11.9301V6.32868ZM19.3728 6.32868H16.8919V19.9736H19.3728V6.32868ZM16.8919 2.60735H11.9301V3.8478H16.8919V2.60735Z" fill="white"/>
</svg>
