<svg width="24" height="6" viewBox="0 0 24 6" fill="none" xmlns="http://www.w3.org/2000/svg">
<path d="M3.80825 0.273315C2.25418 0.273315 0.982666 1.54483 0.982666 3.0989C0.982666 4.65297 2.25418 5.92448 3.80825 5.92448C5.36232 5.92448 6.63383 4.65297 6.63383 3.0989C6.63383 1.54483 5.36232 0.273315 3.80825 0.273315ZM20.7617 0.273315C19.2077 0.273315 17.9362 1.54483 17.9362 3.0989C17.9362 4.65297 19.2077 5.92448 20.7617 5.92448C22.3158 5.92448 23.5873 4.65297 23.5873 3.0989C23.5873 1.54483 22.3158 0.273315 20.7617 0.273315ZM12.285 0.273315C10.7309 0.273315 9.45941 1.54483 9.45941 3.0989C9.45941 4.65297 10.7309 5.92448 12.285 5.92448C13.8391 5.92448 15.1106 4.65297 15.1106 3.0989C15.1106 1.54483 13.8391 0.273315 12.285 0.273315Z" fill="#7551FF"/>
</svg>
