<svg width="273" height="292" viewBox="0 0 273 292" fill="none" xmlns="http://www.w3.org/2000/svg">
<path d="M267.46 84.4761C272.029 82.1433 273.866 76.5306 271.247 72.1202C259.547 52.4208 243.335 35.7225 223.895 23.4322C201.832 9.48404 176.425 1.72684 150.334 0.973468C124.243 0.220095 98.4298 6.49829 75.5993 19.1501C52.7689 31.802 33.7618 50.3617 20.5697 72.8843C7.37763 95.4068 0.486369 121.063 0.618063 147.164C0.749757 173.266 7.89956 198.851 21.3182 221.24C34.7369 243.628 53.9304 261.995 76.8873 274.416C97.1157 285.36 119.61 291.333 142.515 291.903C147.643 292.03 151.639 287.682 151.44 282.556V282.556C151.24 277.43 146.918 273.473 141.791 273.297C122.22 272.627 103.024 267.436 85.727 258.078C65.7007 247.242 48.9574 231.22 37.2517 211.69C25.546 192.159 19.309 169.84 19.1941 147.071C19.0792 124.301 25.0907 101.92 36.5987 82.2729C48.1068 62.6255 64.6875 46.435 84.6035 35.3983C104.519 24.3615 127.037 18.8848 149.798 19.542C172.558 20.1992 194.722 26.9661 213.968 39.1337C230.591 49.643 244.508 63.847 254.665 80.5897C257.326 84.9754 262.892 86.809 267.46 84.4761V84.4761Z" fill="url(#paint0_linear_13_1451)"/>
<defs>
<linearGradient id="paint0_linear_13_1451" x1="146.134" y1="0.912842" x2="146.134" y2="269.343" gradientUnits="userSpaceOnUse">
<stop stop-color="#BBA490"/>
<stop offset="1" stop-color="#EFCEB2"/>
</linearGradient>
</defs>
</svg>
