<svg width="231" height="20" viewBox="0 0 231 20" fill="none" xmlns="http://www.w3.org/2000/svg">
<path d="M207.653 14.04C208.373 14.3333 209.267 14.5467 210.333 14.68C211.427 14.7867 212.56 14.8667 213.733 14.92C214.907 14.9467 215.96 14.96 216.893 14.96C217.24 14.96 217.68 14.96 218.213 14.96C218.773 14.9333 219.213 14.92 219.533 14.92C220.147 14.8933 220.64 14.8267 221.013 14.72C221.413 14.5867 221.707 14.4133 221.893 14.2C222.08 13.96 222.173 13.64 222.173 13.24C222.173 12.7333 222.013 12.3867 221.693 12.2C221.4 12.0133 220.907 11.92 220.213 11.92C219.947 11.92 219.627 11.92 219.253 11.92C218.907 11.92 218.427 11.92 217.813 11.92C217.2 11.92 216.387 11.92 215.373 11.92C214.44 11.92 213.533 11.88 212.653 11.8C211.773 11.72 210.973 11.52 210.253 11.2C209.533 10.88 208.96 10.3733 208.533 9.68C208.107 8.98667 207.893 8.01334 207.893 6.76C207.893 5.29334 208.133 4.14667 208.613 3.32C209.12 2.46667 209.827 1.84 210.733 1.44C211.64 1.01334 212.733 0.74667 214.013 0.640003C215.32 0.50667 216.773 0.440002 218.373 0.440002C219.333 0.440002 220.36 0.453337 221.453 0.480003C222.547 0.480003 223.573 0.50667 224.533 0.560003C225.493 0.613337 226.213 0.66667 226.693 0.720003C227.787 0.773337 228.627 1.06667 229.213 1.6C229.8 2.10667 230.093 2.73334 230.093 3.48C230.093 3.58667 230.093 3.78667 230.093 4.08C230.093 4.37334 230.093 4.66667 230.093 4.96C230.093 5.22667 230.093 5.37334 230.093 5.4C229.933 5.24 229.56 5.12 228.973 5.04C228.387 4.93334 227.693 4.85334 226.893 4.8C226.12 4.74667 225.347 4.72 224.573 4.72C223.827 4.69334 223.16 4.68 222.573 4.68H218.493C217.853 4.68 217.347 4.73334 216.973 4.84C216.627 4.94667 216.373 5.10667 216.213 5.32C216.08 5.53334 216.013 5.81334 216.013 6.16C216.013 6.42667 216.053 6.65334 216.133 6.84C216.24 7.02667 216.413 7.17334 216.653 7.28C216.92 7.38667 217.28 7.44 217.733 7.44C219.573 7.44 221.013 7.44 222.053 7.44C223.12 7.44 223.747 7.44 223.933 7.44C225.267 7.44 226.427 7.56 227.413 7.8C228.4 8.01334 229.16 8.50667 229.693 9.28C230.227 10.0267 230.493 11.2 230.493 12.8C230.493 14.2667 230.213 15.4533 229.653 16.36C229.093 17.24 228.307 17.8933 227.293 18.32C226.28 18.72 225.093 18.96 223.733 19.04C222.24 19.12 220.813 19.16 219.453 19.16C218.12 19.1867 216.693 19.1867 215.173 19.16C213.947 19.1333 212.867 19.08 211.933 19C211 18.9467 210.213 18.8267 209.573 18.64C208.933 18.4533 208.453 18.2 208.133 17.88C207.813 17.5333 207.653 17.1067 207.653 16.6V14.04Z" fill="#BBA490"/>
<path d="M170.489 0.599976H194.009V4.71997H186.209V16.52C186.209 17.5333 186.049 18.2 185.729 18.52C185.436 18.84 184.729 19 183.609 19H178.329V4.71997H170.489V0.599976Z" fill="#BBA490"/>
<path d="M132.512 19V3.07997C132.512 2.06664 132.658 1.39997 132.952 1.07998C133.272 0.759975 134.018 0.599976 135.192 0.599976H142.712L150.232 11.04L150.472 12.28V0.599976H156.192C156.165 0.653308 156.138 0.839974 156.112 1.15998C156.085 1.47997 156.072 1.83997 156.072 2.23997C156.072 2.61331 156.072 2.94664 156.072 3.23997V16.92C156.072 17.8533 155.845 18.44 155.392 18.68C154.938 18.8933 154.138 19 152.992 19H146.152L138.352 8.23997L138.112 6.95997V19H132.512Z" fill="#BBA490"/>
<path d="M109.074 19C109.074 16.3333 109.074 13.6666 109.074 11C109.074 8.30664 109.074 5.62664 109.074 2.95997C109.074 2.45331 109.114 2.02664 109.194 1.67997C109.274 1.30664 109.488 1.03997 109.834 0.879974C110.208 0.693308 110.808 0.599976 111.634 0.599976H116.954V19H109.074Z" fill="#BBA490"/>
<path d="M69.6123 19L76.3323 3.88C76.8123 2.81334 77.4923 1.97334 78.3723 1.36C79.279 0.746669 80.6523 0.440002 82.4923 0.440002C83.9856 0.440002 85.2123 0.733337 86.1723 1.32C87.159 1.88 87.919 2.73334 88.4523 3.88L95.1723 19H86.6523L84.9323 15.24H77.2123L75.6123 19H69.6123ZM78.4523 12.32H83.4523L81.4523 7.6C81.4256 7.46667 81.3723 7.33334 81.2923 7.2C81.239 7.06667 81.1456 7 81.0123 7C80.8523 7 80.7323 7.06667 80.6523 7.2C80.599 7.33334 80.5456 7.46667 80.4923 7.6L78.4523 12.32Z" fill="#BBA490"/>
<path d="M33.8643 14.04C34.5843 14.3333 35.4776 14.5467 36.5443 14.68C37.6376 14.7867 38.7709 14.8667 39.9443 14.92C41.1176 14.9467 42.1709 14.96 43.1043 14.96C43.4509 14.96 43.8909 14.96 44.4243 14.96C44.9843 14.9333 45.4243 14.92 45.7443 14.92C46.3576 14.8933 46.8509 14.8267 47.2243 14.72C47.6243 14.5867 47.9176 14.4133 48.1043 14.2C48.2909 13.96 48.3843 13.64 48.3843 13.24C48.3843 12.7333 48.2243 12.3867 47.9043 12.2C47.6109 12.0133 47.1176 11.92 46.4243 11.92C46.1576 11.92 45.8376 11.92 45.4643 11.92C45.1176 11.92 44.6376 11.92 44.0243 11.92C43.4109 11.92 42.5976 11.92 41.5843 11.92C40.6509 11.92 39.7443 11.88 38.8643 11.8C37.9843 11.72 37.1843 11.52 36.4643 11.2C35.7443 10.88 35.1709 10.3733 34.7443 9.68C34.3176 8.98667 34.1043 8.01334 34.1043 6.76C34.1043 5.29334 34.3443 4.14667 34.8243 3.32C35.3309 2.46667 36.0376 1.84 36.9443 1.44C37.8509 1.01334 38.9443 0.74667 40.2243 0.640003C41.5309 0.50667 42.9843 0.440002 44.5843 0.440002C45.5443 0.440002 46.5709 0.453337 47.6643 0.480003C48.7576 0.480003 49.7843 0.50667 50.7443 0.560003C51.7043 0.613337 52.4243 0.66667 52.9043 0.720003C53.9976 0.773337 54.8376 1.06667 55.4243 1.6C56.0109 2.10667 56.3043 2.73334 56.3043 3.48C56.3043 3.58667 56.3043 3.78667 56.3043 4.08C56.3043 4.37334 56.3043 4.66667 56.3043 4.96C56.3043 5.22667 56.3043 5.37334 56.3043 5.4C56.1443 5.24 55.7709 5.12 55.1843 5.04C54.5976 4.93334 53.9043 4.85334 53.1043 4.8C52.3309 4.74667 51.5576 4.72 50.7843 4.72C50.0376 4.69334 49.3709 4.68 48.7843 4.68H44.7043C44.0643 4.68 43.5576 4.73334 43.1843 4.84C42.8376 4.94667 42.5843 5.10667 42.4243 5.32C42.2909 5.53334 42.2243 5.81334 42.2243 6.16C42.2243 6.42667 42.2643 6.65334 42.3443 6.84C42.4509 7.02667 42.6243 7.17334 42.8643 7.28C43.1309 7.38667 43.4909 7.44 43.9443 7.44C45.7843 7.44 47.2243 7.44 48.2643 7.44C49.3309 7.44 49.9576 7.44 50.1443 7.44C51.4776 7.44 52.6376 7.56 53.6243 7.8C54.6109 8.01334 55.3709 8.50667 55.9043 9.28C56.4376 10.0267 56.7043 11.2 56.7043 12.8C56.7043 14.2667 56.4243 15.4533 55.8643 16.36C55.3043 17.24 54.5176 17.8933 53.5043 18.32C52.4909 18.72 51.3043 18.96 49.9443 19.04C48.4509 19.12 47.0243 19.16 45.6643 19.16C44.3309 19.1867 42.9043 19.1867 41.3843 19.16C40.1576 19.1333 39.0776 19.08 38.1443 19C37.2109 18.9467 36.4243 18.8267 35.7843 18.64C35.1443 18.4533 34.6643 18.2 34.3443 17.88C34.0243 17.5333 33.8643 17.1067 33.8643 16.6V14.04Z" fill="#BBA490"/>
<path d="M2.84062 19L12.9606 4.67999H0.640625V0.679993H17.3206C18.7873 0.679993 19.7873 1.06666 20.3206 1.83999C20.8806 2.61333 20.7473 3.65333 19.9206 4.95999C19.654 5.41333 19.2006 6.07999 18.5606 6.95999C17.9473 7.81333 17.2406 8.78666 16.4406 9.87999C15.6406 10.9733 14.814 12.1067 13.9606 13.28C13.1073 14.4267 12.3206 15.5067 11.6006 16.52C10.8806 17.5067 10.294 18.3333 9.84062 19H2.84062Z" fill="white"/>
</svg>
