<svg width="30" height="31" viewBox="0 0 30 31" fill="none" xmlns="http://www.w3.org/2000/svg">
<path d="M19.5435 4.00791C18.412 2.78627 16.8316 2.11353 15.0873 2.11353C13.3336 2.11353 11.7479 2.7822 10.6217 3.99629C9.48317 5.22374 8.92846 6.89194 9.0587 8.6933C9.31687 12.2472 12.0212 15.1382 15.0873 15.1382C18.1533 15.1382 20.853 12.2478 21.1152 8.69446C21.2472 6.90939 20.689 5.24468 19.5435 4.00791Z" fill="white"/>
<path d="M25.3205 28.1615H4.85318C4.58529 28.165 4.31998 28.1088 4.07657 27.9968C3.83316 27.8849 3.61776 27.72 3.44606 27.5144C3.06811 27.0626 2.91577 26.4457 3.02857 25.8218C3.51932 23.0994 5.05088 20.8125 7.45811 19.2071C9.59672 17.7819 12.3057 16.9976 15.0868 16.9976C17.868 16.9976 20.577 17.7825 22.7156 19.2071C25.1228 20.8119 26.6544 23.0988 27.1451 25.8212C27.2579 26.4451 27.1056 27.062 26.7276 27.5138C26.556 27.7196 26.3406 27.8845 26.0972 27.9965C25.8538 28.1086 25.5884 28.165 25.3205 28.1615V28.1615Z" fill="white"/>
</svg>
