<svg width="31" height="31" viewBox="0 0 31 31" fill="none" xmlns="http://www.w3.org/2000/svg">
<g clip-path="url(#clip0_25_3530)">
<g clip-path="url(#clip1_25_3530)">
<path d="M15.1558 30.4513C23.3768 30.4513 30.0411 23.7869 30.0411 15.566C30.0411 7.34505 23.3768 0.680664 15.1558 0.680664C6.93489 0.680664 0.270508 7.34505 0.270508 15.566C0.270508 23.7869 6.93489 30.4513 15.1558 30.4513Z" fill="#EF0027"/>
<path d="M20.6746 9.90309L7.24805 7.43213L14.3139 25.2126L24.1596 13.2169L20.6746 9.90309ZM20.4588 10.9916L22.5129 12.9443L16.8956 13.9612L20.4588 10.9916ZM15.675 13.7575L9.75436 8.84716L19.4317 10.6278L15.675 13.7575ZM15.2536 14.6264L14.2879 22.6086L9.08266 9.50677L15.2536 14.6264ZM16.1467 15.0497L22.3678 13.924L15.2322 22.6161L16.1467 15.0497Z" fill="white"/>
</g>
</g>
<defs>
<clipPath id="clip0_25_3530">
<rect width="29.7706" height="29.7706" fill="white" transform="translate(0.270508 0.680664)"/>
</clipPath>
<clipPath id="clip1_25_3530">
<rect width="29.7706" height="29.7706" fill="white" transform="translate(0.270508 0.680664)"/>
</clipPath>
</defs>
</svg>
